HIERARCHY
ROOT Hips
{
  OFFSET 52.7254 93.9847 12.077
  CHANNELS 6 Xposition Yposition Zposition Zrotation Xrotation Yrotation
  JOINT spine
  {
    OFFSET 0 7.4756 0.429885
    CHANNELS 3 Zrotation Xrotation Yrotation
    JOINT spine1
    {
      OFFSET 0 9.92301 0
      CHANNELS 3 Zrotation Xrotation Yrotation
      JOINT spine2
      {
        OFFSET 0 9.50804 0
        CHANNELS 3 Zrotation Xrotation Yrotation
        JOINT Neck
        {
          OFFSET 0 24.4111 1.16384
          CHANNELS 3 Zrotation Xrotation Yrotation
          JOINT Head
          {
            OFFSET 0 7.37523 0
            CHANNELS 3 Zrotation Xrotation Yrotation
            End Site
            {
              OFFSET 0 17.8522 -5.88741
            }
          }
        }
        JOINT RightShoulder
        {
          OFFSET -4.00356 10.2679 -0.557468
          CHANNELS 3 Zrotation Xrotation Yrotation
          JOINT RightArm
          {
            OFFSET 0 13.4673 0
            CHANNELS 3 Zrotation Xrotation Yrotation
            JOINT RightArmRoll
            {
              OFFSET 0 6.79858 0
              CHANNELS 3 Zrotation Xrotation Yrotation
              JOINT RightForeArm
              {
                OFFSET 0 19.8018 0
                CHANNELS 3 Zrotation Xrotation Yrotation
                JOINT RightForeArmRoll
                {
                  OFFSET 0 7.62905 0
                  CHANNELS 3 Zrotation Xrotation Yrotation
                  JOINT RightHand
                  {
                    OFFSET 0 15.3098 0
                    CHANNELS 3 Zrotation Xrotation Yrotation
                    End Site
                    {
                      OFFSET 0 0 0
                    }
                  }
                }
              }
            }
          }
        }
        JOINT LeftShoulder
        {
          OFFSET 4.00356 10.2679 -0.557468
          CHANNELS 3 Zrotation Xrotation Yrotation
          JOINT LeftArm
          {
            OFFSET 0 13.4673 0
            CHANNELS 3 Zrotation Xrotation Yrotation
            JOINT LeftArmRoll
            {
              OFFSET 0 6.79858 0
              CHANNELS 3 Zrotation Xrotation Yrotation
              JOINT LeftForeArm
              {
                OFFSET 0 19.8018 0
                CHANNELS 3 Zrotation Xrotation Yrotation
                JOINT LeftForeArmRoll
                {
                  OFFSET 0 7.62905 0
                  CHANNELS 3 Zrotation Xrotation Yrotation
                  JOINT LeftHand
                  {
                    OFFSET 0 15.3098 0
                    CHANNELS 3 Zrotation Xrotation Yrotation
                    End Site
                    {
                      OFFSET 0 0 0
                    }
                  }
                }
              }
            }
          }
        }
      }
    }
  }
  JOINT RightUpLeg
  {
    OFFSET -6.6261 -1.21505 -1.01927
    CHANNELS 3 Zrotation Xrotation Yrotation
    JOINT RightUpLegRoll
    {
      OFFSET 0 17.9517 0
      CHANNELS 3 Zrotation Xrotation Yrotation
      JOINT RightLeg
      {
        OFFSET 0 -22.2304 0
        CHANNELS 3 Zrotation Xrotation Yrotation
        JOINT RightLegRoll
        {
          OFFSET 0 22.3032 0
          CHANNELS 3 Zrotation Xrotation Yrotation
          JOINT RightFoot
          {
            OFFSET 0 18.5636 0
            CHANNELS 3 Zrotation Xrotation Yrotation
            JOINT RightToeBase
            {
              OFFSET 0 15.5183 0
              CHANNELS 3 Zrotation Xrotation Yrotation
              End Site
              {
                OFFSET 0.00657761 7.51539 -0.866263
              }
            }
          }
        }
      }
    }
  }
  JOINT LeftUpLeg
  {
    OFFSET 6.6261 -1.21505 -1.01927
    CHANNELS 3 Zrotation Xrotation Yrotation
    JOINT LeftUpLegRoll
    {
      OFFSET 0 17.9518 0
      CHANNELS 3 Zrotation Xrotation Yrotation
      JOINT LeftLeg
      {
        OFFSET 0 22.2303 0
        CHANNELS 3 Zrotation Xrotation Yrotation
        JOINT LeftLegRoll
        {
          OFFSET 0 22.5093 0
          CHANNELS 3 Zrotation Xrotation Yrotation
          JOINT LeftFoot
          {
            OFFSET 0 18.3575 0
            CHANNELS 3 Zrotation Xrotation Yrotation
            JOINT LeftToeBase
            {
              OFFSET 0 15.5183 0
              CHANNELS 3 Zrotation Xrotation Yrotation
              End Site
              {
                OFFSET -0.029478 7.51539 -0.866262
              }
            }
          }
        }
      }
    }
  }
}
MOTION
Frames: 6
Frame Time: 0.00208333
51.6136 110.33 10.5093 0.657332 3.38576 0.220091 0.0801926 -2.13284 0.16961 0.164821 -0.26263 0.331763 0.160892 1.38244 0.329081 -3.95741 -3.012 -3.43838 3.94584 11.1062 -4.03224 41.7538 -9.75255 -5.93069 58.624 11.1407 36.397 -3.72396e-005 1.5637e-006 3.8709e-006 3.96515 32.7153 -3.14419 2.82802e-006 -1.698e-007 -3.00328 8.02966 -4.95143 0.697659 -36.0245 -14.2787 10.2134 -71.3123 8.54345 -31.6146 1.63223e-006 7.62657e-009 -1.42479e-005 -2.64765 23.9008 1.74947 4.85865e-006 8.38244e-006 3.00001 -8.03012 -4.95138 -0.697652 175.075 6.542 -0.0139965 -180 7.0157e-015 179.029 179.918 9.21273 179.503 3.75783e-006 -4.46949e-006 0.240206 -20.3464 69.9312 21.2878 8.13649 25.2327 -3.48773 -174.278 7.13389 0.103703 4.54188e-006 -4.6773e-006 -1.01139 -2.32608 -9.40259 0.103808 1.99343e-006 5.99787e-006 -0.0601396 17.0831 65.8282 -17.8858 -8.13649 25.2327 3.48774 
51.6072 110.348 10.4871 0.651286 3.33717 0.239815 0.0891297 -2.11037 0.165605 0.182502 -0.21767 0.322899 0.178686 1.4274 0.319922 -4.1332 -3.14066 -3.43579 4.06101 11.2005 -4.05285 42.0873 -9.72335 -5.9092 59.0028 10.8595 36.2214 -3.72396e-005 1.5637e-006 3.8709e-006 3.98741 32.7131 -3.15249 2.82802e-006 -1.698e-007 -3.00328 8.02966 -4.95143 0.697659 -36.6787 -14.1649 10.069 -71.4925 8.14754 -31.7675 1.63223e-006 7.62657e-009 -1.42479e-005 -2.53971 23.7011 1.71664 4.85865e-006 8.38244e-006 3.00001 -8.03012 -4.95138 -0.697652 175.186 6.58346 -0.0606918 -180 7.0157e-015 179.028 179.905 9.36429 179.5 3.75783e-006 -4.46949e-006 0.244415 -20.3774 69.9638 21.3201 8.13649 25.2327 -3.48773 -174.381 7.10847 0.146325 4.54188e-006 -4.6773e-006 -1.01211 -2.33597 -9.50908 0.104925 1.99343e-006 5.99787e-006 -0.0622026 17.0811 65.8251 -17.8829 -8.13649 25.2327 3.48774 
51.6084 110.36 10.4599 0.647272 3.28471 0.262591 0.0972898 -2.08811 0.161577 0.19863 -0.173141 0.314054 0.194926 1.47193 0.310808 -4.29809 -3.25655 -3.43544 4.16363 11.2846 -4.07394 42.4193 -9.69122 -5.88585 59.3885 10.5727 36.0625 -3.72396e-005 1.5637e-006 3.8709e-006 4.00262 32.7029 -3.15889 2.82802e-006 -1.698e-007 -3.00328 8.02966 -4.95143 0.697659 -37.3575 -14.0387 9.9172 -71.6398 7.74502 -31.8883 1.63223e-006 7.62657e-009 -1.42479e-005 -2.45646 23.4951 1.68981 4.85865e-006 8.38244e-006 3.00001 -8.03012 -4.95138 -0.697652 175.289 6.61634 -0.100696 -180 7.0157e-015 179.027 179.887 9.51116 179.497 3.75783e-006 -4.46949e-006 0.248287 -20.4061 69.994 21.3502 8.13649 25.2327 -3.48773 -174.487 7.07668 0.19066 4.54188e-006 -4.6773e-006 -1.01286 -2.34627 -9.61052 0.105997 1.99343e-006 5.99787e-006 -0.064069 17.0771 65.8189 -17.8783 -8.13649 25.2327 3.48774 
51.5809 110.357 10.4396 0.646902 3.22734 0.287549 0.104702 -2.06554 0.157124 0.213252 -0.127986 0.304426 0.209671 1.51708 0.300935 -4.46441 -3.36202 -3.43529 4.26455 11.3625 -4.095 42.7471 -9.65469 -5.85902 59.7851 10.2827 35.9218 -3.72396e-005 1.5637e-006 3.8709e-006 4.00999 32.6849 -3.16286 2.82802e-006 -1.698e-007 -3.00328 8.02966 -4.95143 0.697659 -38.0796 -13.8964 9.75276 -71.7318 7.32729 -31.9995 1.63223e-006 7.62656e-009 -1.42479e-005 -2.3881 23.2683 1.66573 4.85865e-006 8.38244e-006 3.00001 -8.03012 -4.95138 -0.697652 175.384 6.64125 -0.133867 -180 7.0157e-015 179.026 179.867 9.65411 179.495 3.75783e-006 -4.46949e-006 0.251805 -20.4319 70.0213 21.3775 8.13649 25.2327 -3.48773 -174.599 7.03967 0.237577 4.54188e-006 -4.6773e-006 -1.01362 -2.35728 -9.71135 0.107029 1.99342e-006 5.99787e-006 -0.0659308 17.0727 65.8124 -17.8736 -8.13649 25.2327 3.48774 
51.5989 110.354 10.4442 0.649435 3.16536 0.314479 0.111478 -2.04266 0.152338 0.226595 -0.0822365 0.294186 0.223143 1.56283 0.290472 -4.63024 -3.45764 -3.43551 4.36232 11.4339 -4.116 43.0714 -9.61434 -5.82922 60.1915 9.98989 35.7971 -3.72396e-005 1.5637e-006 3.8709e-006 4.01055 32.6608 -3.16479 2.82802e-006 -1.698e-007 -3.00328 8.02966 -4.95143 0.697659 -38.8371 -13.7402 9.57784 -71.7778 6.89727 -32.1012 1.63223e-006 7.62657e-009 -1.42479e-005 -2.3335 23.0239 1.64424 4.85865e-006 8.38244e-006 3.00001 -8.03012 -4.95138 -0.697652 175.472 6.65856 -0.16119 -180 7.01569e-015 179.025 179.844 9.79342 179.493 3.75783e-006 -4.46949e-006 0.255012 -20.4553 70.0462 21.4023 8.13649 25.2327 -3.48773 -174.716 6.99736 0.286653 4.54188e-006 -4.6773e-006 -1.01441 -2.36867 -9.81096 0.108034 1.99343e-006 5.99787e-006 -0.0677613 17.0678 65.8052 -17.8687 -8.13649 25.2327 3.48774 
51.5896 110.354 10.4186 0.654129 3.09905 0.343174 0.117726 -2.01951 0.14731 0.23888 -0.0359221 0.283506 0.235564 1.60915 0.279586 -4.79362 -3.54396 -3.43624 4.45547 11.4987 -4.1369 43.3929 -9.57072 -5.79694 60.6066 9.6946 35.6864 -3.72396e-005 1.5637e-006 3.8709e-006 4.00533 32.6323 -3.16504 2.82802e-006 -1.698e-007 -3.00328 8.02966 -4.95143 0.697659 -39.6225 -13.5724 9.39458 -71.7869 6.45783 -32.1934 1.63223e-006 7.62657e-009 -1.42479e-005 -2.29152 22.7652 1.6252 4.85865e-006 8.38244e-006 3.00001 -8.03012 -4.95138 -0.697652 175.555 6.6686 -0.183652 -180 7.01569e-015 179.023 179.819 9.92944 179.492 3.75783e-006 -4.46949e-006 0.257951 -20.4766 70.069 21.4251 8.13649 25.2327 -3.48773 -174.835 6.94969 0.337464 4.54188e-006 -4.6773e-006 -1.01523 -2.38011 -9.90872 0.109024 1.99343e-006 5.99787e-006 -0.0695337 17.0623 65.7974 -17.8634 -8.13649 25.2327 3.48774 
